<svg width="209" height="146" viewBox="0 0 209 146" fill="none" xmlns="http://www.w3.org/2000/svg">
<path d="M60.0155 139.403C61.7644 134.808 59.476 129.673 54.8806 127.924C50.2853 126.157 45.1504 128.464 43.4016 133.059C41.6527 137.636 43.9411 142.789 48.5364 144.538C53.1132 146.287 58.2667 143.998 60.0155 139.403Z" fill="#AACF3A"/>
<path d="M51.6985 143.534C50.8054 143.534 49.931 143.366 49.0938 143.05C45.3357 141.599 43.438 137.376 44.8705 133.599C45.9496 130.79 48.7031 128.892 51.6985 128.892C52.5915 128.892 53.4659 129.059 54.3031 129.376C56.1264 130.083 57.5775 131.441 58.3775 133.227C59.1775 135.013 59.2333 137.003 58.5264 138.827C57.4473 141.636 54.6938 143.534 51.6798 143.534H51.6985Z" fill="#AACF3A"/>
<path d="M67.2899 140.836C65.8946 134.492 61.9876 125.097 50.9922 123.311C42.6573 122.157 34.3597 122.697 26.4155 127.943C24.3317 129.32 21.5596 128.948 19.9596 127.05C17.9689 124.706 18.6015 121.115 21.2806 119.59C40.7225 108.594 63.9411 125.766 84.0341 122.362C76.8899 127.162 70.5271 132.743 67.2899 140.836Z" fill="#AACF3A"/>
<path d="M67.6588 136.427C65.5379 130.492 60.9983 123.329 51.2309 121.747C48.682 121.394 46.3751 121.227 44.1611 121.227C37.1471 121.227 31.0448 122.994 25.5378 126.622C24.9797 126.994 24.3285 127.18 23.6774 127.18C22.6913 127.18 21.7797 126.752 21.1471 126.008C20.496 125.245 20.2355 124.24 20.4029 123.273C20.5704 122.287 21.1843 121.45 22.0402 120.947C26.2262 118.566 30.9146 117.431 36.3658 117.431C43.082 117.431 50.2076 119.18 57.1286 120.892C64.1425 122.622 71.3984 124.408 78.3565 124.408H78.5053C74.5425 127.515 70.5239 131.403 67.6588 136.445" fill="#AACF3A"/>
<path d="M91.9406 13.3011C90.1918 17.8964 92.4802 23.0313 97.0755 24.7802C101.652 26.5476 106.806 24.2406 108.555 19.6453C110.303 15.0685 108.015 9.91504 103.42 8.1662C98.8243 6.41736 93.6895 8.70574 91.9406 13.3011Z" fill="#106EB4"/>
<path d="M100.236 23.7936V25.8401C99.1012 25.8401 97.9664 25.6355 96.8873 25.2262C94.5617 24.3332 92.6826 22.5657 91.678 20.2959C91.1384 19.0866 90.8594 17.7843 90.8594 16.482C90.8594 15.3471 91.064 14.2122 91.4733 13.1331C92.8687 9.50523 96.3478 7.12383 100.236 7.10522C101.371 7.10522 102.506 7.30988 103.585 7.71918C105.911 8.6122 107.79 10.3796 108.794 12.6494C109.334 13.8587 109.613 15.161 109.613 16.4634C109.613 17.5983 109.408 18.7331 108.999 19.8122C107.604 23.4401 104.125 25.8401 100.236 25.8401V21.7285C102.376 21.7285 104.385 20.3518 105.166 18.3425C105.408 17.7285 105.52 17.0959 105.52 16.4634C105.52 15.7378 105.371 15.0122 105.055 14.3238C104.478 13.0401 103.455 12.0727 102.134 11.5517C101.52 11.3285 100.906 11.1983 100.255 11.1983C98.0966 11.1983 96.1059 12.575 95.3431 14.5843C95.1012 15.1983 94.9896 15.8308 94.9896 16.4634C94.9896 17.189 95.1385 17.9145 95.4547 18.6029C96.0315 19.8866 97.0547 20.8541 98.3757 21.375C98.9896 21.6169 99.6222 21.7285 100.255 21.7285V23.775L100.236 23.7936Z" fill="#106EB4"/>
<path d="M84.6641 11.8496C86.0595 18.1938 89.9665 27.5892 100.962 29.3752C109.297 30.5287 117.576 29.9892 125.539 24.7427C127.622 23.3659 130.394 23.738 131.994 25.6357C133.985 27.9799 133.353 31.5706 130.673 33.0961C111.232 44.0915 88.013 26.9194 67.9199 30.3241C75.0641 25.524 81.4269 19.9426 84.6641 11.8496Z" fill="#106EB4"/>
<path d="M115.566 35.2543V37.3008C108.496 37.3008 101.222 35.4775 94.3192 33.7845C87.3052 32.0543 80.1983 30.324 73.5936 30.324H67.4727L72.1796 26.6589C76.0308 23.6636 79.8262 19.9426 82.5052 15.217L84.7192 11.3101L86.2262 15.5333C87.2122 18.324 88.7564 21.3194 91.1192 23.7752C93.482 26.231 96.6076 28.1473 101.035 28.8729L100.701 30.9008L100.98 28.8729C103.454 29.2264 105.649 29.3752 107.77 29.3752C114.449 29.3752 120.068 27.7194 125.259 24.3147C126.152 23.738 127.175 23.4217 128.254 23.4217C129.836 23.4217 131.324 24.1101 132.347 25.3008C133.166 26.2868 133.612 27.5147 133.612 28.7798L133.519 29.7287C133.24 31.3101 132.273 32.6868 130.877 33.4682C126.356 36.0171 121.277 37.2636 115.529 37.2636V33.1519C120.701 33.1519 124.98 32.0729 128.849 29.8961C129.184 29.7101 129.408 29.3938 129.482 29.0031V28.7612L129.203 27.9426C128.961 27.6636 128.608 27.5147 128.236 27.4961L127.491 27.7194C121.649 31.5705 115.101 33.4682 107.733 33.4496C105.408 33.4496 103.008 33.2636 100.366 32.8915H100.329C95.0076 32.0357 90.989 29.5985 88.1052 26.5845C85.2215 23.5705 83.4355 20.0357 82.3006 16.8729L84.2355 16.1845L86.0215 17.2077C82.9704 22.5659 78.7471 26.6403 74.6541 29.8403L73.3889 28.2217V26.1752H73.5378C80.8494 26.1752 88.2355 28.0171 95.2494 29.7473C102.152 31.4403 109.147 33.1519 115.51 33.1333V35.1799L115.566 35.2543Z" fill="#106EB4"/>
<path d="M42.6746 20.4639C44.684 24.9476 49.9491 26.9569 54.4328 24.9662C58.9165 22.9569 60.9258 17.6918 58.9351 13.2081C56.9258 8.72437 51.6607 6.71506 47.177 8.72437C42.6933 10.7337 40.6839 15.9802 42.6746 20.4639Z" fill="#F7D30C"/>
<path d="M50.8056 24.1661C47.9219 24.1661 45.2986 22.473 44.1265 19.8312C43.3265 18.0451 43.2707 16.0544 43.9777 14.2312C44.6847 12.4079 46.0428 10.9567 47.8288 10.1567C48.7777 9.72882 49.7823 9.52417 50.8056 9.52417C53.6893 9.52417 56.3126 11.2172 57.4847 13.8591C59.1405 17.5428 57.4847 21.8777 53.8009 23.5335C52.8521 23.9614 51.8475 24.1661 50.8242 24.1661" fill="#F7D30C"/>
<path d="M36.5176 24.5939C41.9874 28.0915 51.4013 31.9799 60.4432 25.4683C67.1595 20.3892 72.6293 14.138 74.5455 4.81708C75.0479 2.37987 77.2618 0.686843 79.7548 0.891494C82.8246 1.13335 84.9083 4.12871 84.0897 7.08685C78.1176 28.6125 49.5595 32.8729 37.7641 49.4869C39.4199 41.0404 39.9594 32.5939 36.5362 24.5752" fill="#F7D30C"/>
<path d="M40.2005 44.1664C40.8144 39.1617 40.8889 33.5617 39.3633 27.9803C42.3214 29.3943 45.9493 30.5478 49.8563 30.5478C53.9866 30.5478 57.8377 29.264 61.354 26.7338C69.6703 20.4454 74.3401 13.5989 76.0889 5.11516C76.4052 3.55237 77.7819 2.41748 79.3447 2.41748H79.6238C80.6098 2.5105 81.5215 3.03143 82.0796 3.85004C82.6564 4.66865 82.8238 5.6919 82.5633 6.64074C79.2703 18.5105 68.8517 24.8175 57.8005 31.4966C51.5679 35.2733 45.1679 39.1431 40.2005 44.1478" fill="#F7D30C"/>
<path d="M12.9271 60.3705C17.5224 62.1194 22.6573 59.831 24.4062 55.2356C26.1736 50.6403 23.8666 45.5054 19.2713 43.7566C14.6759 41.9891 9.54102 44.2961 7.79218 48.8914C6.04334 53.4868 8.33172 58.6217 12.9271 60.3705Z" fill="#EF7427"/>
<path d="M16.0858 59.3848C15.1928 59.3848 14.3184 59.2174 13.4812 58.9011C11.6579 58.1941 10.2067 56.836 9.42534 55.0499C8.62534 53.2639 8.56953 51.2732 9.27651 49.4499C10.3556 46.6406 13.1091 44.7429 16.1044 44.7429C16.9974 44.7429 17.8719 44.9104 18.7091 45.2266C22.4672 46.6592 24.3649 50.9011 22.9323 54.6778C21.8533 57.4871 19.0998 59.3848 16.0858 59.3848Z" fill="#EF7427"/>
<path d="M11.4746 67.664C17.8188 66.2686 27.2142 62.3616 29.0002 51.3663C30.1537 43.0314 29.6142 34.7523 24.3677 26.7895C22.9909 24.7058 23.363 21.9337 25.2607 20.3337C27.6049 18.343 31.1956 18.9755 32.7211 21.6546C43.7165 41.0965 26.5444 64.3151 29.9491 84.4082C25.149 77.264 19.5676 70.9198 11.4746 67.664Z" fill="#EF7427"/>
<path d="M27.922 78.8823C24.815 74.9009 20.9266 70.9009 15.8848 68.0358C21.8383 65.9149 28.9825 61.3753 30.5639 51.6079C31.9964 41.3009 30.4522 33.1334 25.6894 25.9148C24.7592 24.5009 25.0197 22.6032 26.2848 21.5241C26.8987 21.0032 27.6429 20.7241 28.4243 20.7241C29.6522 20.7241 30.7313 21.3567 31.3266 22.4171C37.3918 33.1334 34.4894 44.966 31.4011 57.487C29.6522 64.5753 27.8662 71.8312 27.8848 78.8637" fill="#EF7427"/>
<path d="M20.108 109.636C24.5917 107.627 26.601 102.361 24.5917 97.8777C22.5824 93.3939 17.3359 91.3846 12.8336 93.3753C8.34986 95.3846 6.34055 100.631 8.34986 105.133C10.3592 109.617 15.6057 111.627 20.108 109.636Z" fill="#EB3A4B"/>
<path d="M16.4804 108.836C13.5967 108.836 10.9735 107.143 9.78277 104.501C8.98276 102.715 8.92695 100.724 9.63393 98.9008C10.3409 97.0776 11.699 95.6264 13.4851 94.8264C14.4339 94.3985 15.4386 94.1938 16.4618 94.1938C19.3456 94.1938 21.9688 95.8869 23.1595 98.5287C24.7967 102.212 23.1595 106.547 19.4572 108.203C18.5084 108.631 17.5037 108.836 16.4804 108.836Z" fill="#EB3A4B"/>
<path d="M24.2191 115.813C27.7168 110.343 31.6052 100.929 25.0935 91.887C20.0144 85.1707 13.7633 79.701 4.44232 77.7847C2.00511 77.2824 0.312087 75.0684 0.516738 72.5754C0.758599 69.5056 3.75395 67.4219 6.7121 68.2405C28.2377 74.2126 32.4982 102.771 49.1122 114.585C40.6656 112.929 32.2191 112.389 24.2005 115.813" fill="#EB3A4B"/>
<path d="M27.6059 112.947C30.3036 107.254 32.1455 98.9754 26.378 90.9567C20.0897 82.6405 13.2431 77.9707 4.7594 76.2218C3.10358 75.8684 1.95009 74.3614 2.08033 72.687C2.21056 70.9753 3.68033 69.6172 5.39196 69.6172L6.28498 69.7474C18.1548 73.0404 24.4618 83.4591 31.1408 94.5102C34.9176 100.743 38.7874 107.143 43.792 112.11C41.5036 111.831 39.4013 111.701 37.3548 111.701C33.8571 111.701 30.6385 112.11 27.6059 112.947Z" fill="#EB3A4B"/>
<path d="M63.5131 48.8359L57.2247 100.073H41.9316L48.2014 48.8359H63.5131Z" fill="#211D51"/>
<path d="M114.917 48.8359L108.647 100.073H93.4844L95.8844 80.5569H79.4007L77.0007 100.073H61.8379L68.1077 48.8359H83.2705L81.0193 67.4406H97.5031L99.7728 48.8359H114.917Z" fill="#211D51"/>
<path d="M160.201 63.143L159.717 67.236C159.01 73.2453 156.052 77.0407 150.824 78.5849C155.048 79.9058 157.169 82.6965 157.169 86.9756C157.169 87.3105 157.15 87.6826 157.094 88.1105C157.038 88.5384 157.02 88.8546 157.02 89.0965L155.68 100.092H140.238L141.429 90.436L141.503 89.5616V89.0965C141.503 87.7384 141.15 86.7895 140.443 86.2686C139.736 85.7477 138.508 85.4872 136.778 85.4872H129.876L128.108 100.073H112.945L119.215 48.8174H140.573C147.68 48.8174 152.648 49.5616 155.513 51.0685C158.75 52.7616 160.369 55.7941 160.369 60.1662C160.369 61.0593 160.294 62.0453 160.164 63.1244M144.48 66.1197L144.555 65.2639V64.6314C144.555 63.3104 144.22 62.4174 143.531 61.9337C142.843 61.4686 141.634 61.2267 139.903 61.2267H132.927L131.438 72.8546H138.415C140.387 72.8546 141.801 72.5197 142.638 71.8686C143.476 71.1988 144.015 69.9337 144.257 68.036L144.462 66.1197H144.48Z" fill="#211D51"/>
<path d="M208.167 66.7336L207.962 68.4266H192.874L193.078 66.808C193.116 66.4917 193.153 66.0266 193.153 65.4685C193.153 63.9615 192.688 62.901 191.776 62.2685C190.864 61.6359 189.339 61.3196 187.237 61.3196C184.278 61.3196 182.306 61.9708 181.32 63.2917C180.52 64.3708 179.888 66.7336 179.423 70.3429L178.362 78.5848C178.12 80.3708 178.009 81.7475 178.009 82.7522C178.009 84.5755 178.418 85.8406 179.237 86.5103C180.055 87.1987 181.637 87.5336 183.999 87.5336C186.492 87.5336 188.26 87.1057 189.32 86.2313C190.381 85.3569 191.069 83.7383 191.404 81.3382L191.609 79.515H206.976L206.697 81.6359C205.86 88.4452 203.739 93.3383 200.353 96.2964C196.967 99.2546 191.795 100.743 184.837 100.743H180.185C173.599 100.743 168.948 99.5894 166.195 97.3011C163.441 95.0127 162.064 91.1057 162.064 85.6173C162.064 83.7755 162.213 81.7289 162.492 79.515L163.757 69.1336C164.688 61.4126 166.846 55.9987 170.213 52.8917C173.581 49.7847 179.032 48.2219 186.604 48.2219H190.399C196.93 48.2219 201.581 49.2452 204.353 51.2917C207.125 53.3382 208.502 56.8545 208.502 61.8405C208.502 62.7336 208.483 63.4591 208.427 63.9801C208.39 64.5196 208.297 65.4499 208.148 66.7708" fill="#211D51"/>
</svg>
